<svg viewBox="0 0 100 100" xmlns="http://www.w3.org/2000/svg"><path d="M79.5,63.5Q66,77,48.5,79.5Q31,82,20,66Q9,50,19.5,32.5Q30,15,51,13.5Q72,12,82.5,31Q93,50,79.5,63.5Z" stroke="none" stroke-width="0" fill="#d2e6d0" data-darkreader-inline-fill="" style="--darkreader-inline-fill: #253218; --darkreader-inline-stroke: none;" data-darkreader-inline-stroke=""/><path d="M82,66.5Q69,83,47.5,87.5Q26,92,21,71Q16,50,22.5,31.5Q29,13,50.5,12Q72,11,83.5,30.5Q95,50,82,66.5Z" stroke="none" stroke-width="0" fill="#cfe4d0" data-darkreader-inline-fill="" style="--darkreader-inline-fill: #1f321f; --darkreader-inline-stroke: none;" data-darkreader-inline-stroke=""/><path d="M78,64Q66,78,46.5,84Q27,90,18,70Q9,50,17.5,29.5Q26,9,47,14Q68,19,79,34.5Q90,50,78,64Z" stroke="none" stroke-width="0" fill="#cce2d0" data-darkreader-inline-fill="" style="--darkreader-inline-fill: #203423; --darkreader-inline-stroke: none;" data-darkreader-inline-stroke=""/><path d="M79.5,65.5Q68,81,48,84.5Q28,88,21,69Q14,50,21,31Q28,12,50,11.5Q72,11,81.5,30.5Q91,50,79.5,65.5Z" stroke="none" stroke-width="0" fill="#c9e0d0" data-darkreader-inline-fill="" style="--darkreader-inline-fill: #223727; --darkreader-inline-stroke: none;" data-darkreader-inline-stroke=""/><path d="M75.5,66.5Q69,83,48.5,86Q28,89,15.5,69.5Q3,50,15.5,31Q28,12,48,15Q68,18,75,34Q82,50,75.5,66.5Z" stroke="none" stroke-width="0" fill="#c6ded0" data-darkreader-inline-fill="" style="--darkreader-inline-fill: #25392b; --darkreader-inline-stroke: none;" data-darkreader-inline-stroke=""/><path d="M78.5,68.5Q72,87,49.5,88Q27,89,19.5,69.5Q12,50,21.5,34Q31,18,52,14Q73,10,79,30Q85,50,78.5,68.5Z" stroke="none" stroke-width="0" fill="#c3dcd0" data-darkreader-inline-fill="" style="--darkreader-inline-fill: #263b2f; --darkreader-inline-stroke: none;" data-darkreader-inline-stroke=""/><path d="M80.5,63.5Q66,77,46.5,83.5Q27,90,22,70Q17,50,23,32Q29,14,48,17Q67,20,81,35Q95,50,80.5,63.5Z" stroke="none" stroke-width="0" fill="#c0dad0" data-darkreader-inline-fill="" style="--darkreader-inline-fill: #283d33; --darkreader-inline-stroke: none;" data-darkreader-inline-stroke=""/><path d="M76.5,63Q65,76,49,78Q33,80,19.5,65Q6,50,16.5,30.5Q27,11,48.5,13.5Q70,16,79,33Q88,50,76.5,63Z" stroke="none" stroke-width="0" fill="#bdd8d0" data-darkreader-inline-fill="" style="--darkreader-inline-fill: #2a4036; --darkreader-inline-stroke: none;" data-darkreader-inline-stroke=""/><path d="M82.5,66.5Q69,83,50.5,81.5Q32,80,17.5,65Q3,50,18.5,36.5Q34,23,52,19Q70,15,83,32.5Q96,50,82.5,66.5Z" stroke="none" stroke-width="0" fill="#bad6d0" data-darkreader-inline-fill="" style="--darkreader-inline-fill: #2c4139; --darkreader-inline-stroke: none;" data-darkreader-inline-stroke=""/><path d="M85,70Q73,90,53.5,83.5Q34,77,22.5,63.5Q11,50,20,32Q29,14,52,10.5Q75,7,86,28.5Q97,50,85,70Z" stroke="none" stroke-width="0" fill="#b7d4d0" data-darkreader-inline-fill="" style="--darkreader-inline-fill: #2e433c; --darkreader-inline-stroke: none;" data-darkreader-inline-stroke=""/><path d="M84.5,70Q73,90,51,88.5Q29,87,16,68.5Q3,50,17.5,34.5Q32,19,50.5,18Q69,17,82.5,33.5Q96,50,84.5,70Z" stroke="none" stroke-width="0" fill="#b4d2d0" data-darkreader-inline-fill="" style="--darkreader-inline-fill: #2f4640; --darkreader-inline-stroke: none;" data-darkreader-inline-stroke=""/><path d="M77.5,63Q65,76,45.5,84Q26,92,14,71Q2,50,16.5,34Q31,18,51.5,15Q72,12,81,31Q90,50,77.5,63Z" stroke="none" stroke-width="0" fill="#b1d0d0" data-darkreader-inline-fill="" style="--darkreader-inline-fill: #314843; --darkreader-inline-stroke: none;" data-darkreader-inline-stroke=""/><path d="M77,67.5Q70,85,48.5,87Q27,89,14,69.5Q1,50,14.5,30.5Q28,11,48.5,14Q69,17,76.5,33.5Q84,50,77,67.5Z" stroke="none" stroke-width="0" fill="#aeced0" data-darkreader-inline-fill="" style="--darkreader-inline-fill: #314845; --darkreader-inline-stroke: none;" data-darkreader-inline-stroke=""/><path d="M79,68.5Q71,87,52.5,82.5Q34,78,25,64Q16,50,25.5,36.5Q35,23,51,22Q67,21,77,35.5Q87,50,79,68.5Z" stroke="none" stroke-width="0" fill="#abccd0" data-darkreader-inline-fill="" style="--darkreader-inline-fill: #304847; --darkreader-inline-stroke: none;" data-darkreader-inline-stroke=""/><path d="M78,68Q71,86,52.5,81.5Q34,77,23,63.5Q12,50,23,36Q34,22,52,19Q70,16,77.5,33Q85,50,78,68Z" stroke="none" stroke-width="0" fill="#a8cad0" data-darkreader-inline-fill="" style="--darkreader-inline-fill: #314848; --darkreader-inline-stroke: none;" data-darkreader-inline-stroke=""/><path d="M78,67Q70,84,51,82Q32,80,21,65Q10,50,22,36Q34,22,52,18.5Q70,15,78,32.5Q86,50,78,67Z" stroke="none" stroke-width="0" fill="#a5c8d0" data-darkreader-inline-fill="" style="--darkreader-inline-fill: #314a4b; --darkreader-inline-stroke: none;" data-darkreader-inline-stroke=""/><path d="M85,68Q71,86,50.5,85.5Q30,85,20,67.5Q10,50,21.5,35.5Q33,21,53,16Q73,11,86,30.5Q99,50,85,68Z" stroke="none" stroke-width="0" fill="#a2c6d0" data-darkreader-inline-fill="" style="--darkreader-inline-fill: #304a4d; --darkreader-inline-stroke: none;" data-darkreader-inline-stroke=""/><path d="M78.5,68Q71,86,52.5,82Q34,78,17.5,64Q1,50,16.5,34.5Q32,19,50,19Q68,19,77,34.5Q86,50,78.5,68Z" stroke="none" stroke-width="0" fill="#9fc4d0" data-darkreader-inline-fill="" style="--darkreader-inline-fill: #304a4e; --darkreader-inline-stroke: none;" data-darkreader-inline-stroke=""/><path d="M78.5,69.5Q73,89,51.5,86.5Q30,84,16,67Q2,50,14,29Q26,8,47.5,12.5Q69,17,76.5,33.5Q84,50,78.5,69.5Z" stroke="none" stroke-width="0" fill="#9cc2d0" data-darkreader-inline-fill="" style="--darkreader-inline-fill: #314b50; --darkreader-inline-stroke: none;" data-darkreader-inline-stroke=""/><path d="M76.5,69Q72,88,52.5,84Q33,80,24,65Q15,50,22,31.5Q29,13,51,12Q73,11,77,30.5Q81,50,76.5,69Z" stroke="none" stroke-width="0" fill="#99c0d0" data-darkreader-inline-fill="" style="--darkreader-inline-fill: #304b52; --darkreader-inline-stroke: none;" data-darkreader-inline-stroke=""/><path d="M76,64.5Q67,79,47.5,83.5Q28,88,19.5,69Q11,50,21.5,34.5Q32,19,51.5,16Q71,13,78,31.5Q85,50,76,64.5Z" stroke="none" stroke-width="0" fill="#96bed0" data-darkreader-inline-fill="" style="--darkreader-inline-fill: #304b54; --darkreader-inline-stroke: none;" data-darkreader-inline-stroke=""/><path d="M73,63.5Q66,77,45.5,85Q25,93,13,71.5Q1,50,13.5,29Q26,8,47,13Q68,18,74,34Q80,50,73,63.5Z" stroke="none" stroke-width="0" fill="#93bcd0" data-darkreader-inline-fill="" style="--darkreader-inline-fill: #314c55; --darkreader-inline-stroke: none;" data-darkreader-inline-stroke=""/><path d="M84.5,66.5Q69,83,51.5,80.5Q34,78,25,64Q16,50,22.5,31.5Q29,13,48,16.5Q67,20,83.5,35Q100,50,84.5,66.5Z" stroke="none" stroke-width="0" fill="#90bad0" data-darkreader-inline-fill="" style="--darkreader-inline-fill: #304c57; --darkreader-inline-stroke: none;" data-darkreader-inline-stroke=""/><path d="M74,64Q66,78,50,78Q34,78,17.5,64Q1,50,17.5,36Q34,22,52.5,17.5Q71,13,76.5,31.5Q82,50,74,64Z" stroke="none" stroke-width="0" fill="#8db8d0" data-darkreader-inline-fill="" style="--darkreader-inline-fill: #304d5a; --darkreader-inline-stroke: none;" data-darkreader-inline-stroke=""/><path d="M79.5,69Q72,88,49,89.5Q26,91,17,70.5Q8,50,18.5,31.5Q29,13,49,15.5Q69,18,78,34Q87,50,79.5,69Z" stroke="none" stroke-width="0" fill="#8ab6d0" data-darkreader-inline-fill="" style="--darkreader-inline-fill: #304e5c; --darkreader-inline-stroke: none;" data-darkreader-inline-stroke=""/><path d="M75,66.5Q69,83,50,83Q31,83,22.5,66.5Q14,50,21,31Q28,12,51,10.5Q74,9,77.5,29.5Q81,50,75,66.5Z" stroke="none" stroke-width="0" fill="#87b4d0" data-darkreader-inline-fill="" style="--darkreader-inline-fill: #304e5d; --darkreader-inline-stroke: none;" data-darkreader-inline-stroke=""/><path d="M76.5,64Q66,78,46.5,84Q27,90,19.5,70Q12,50,20.5,32Q29,14,51.5,11Q74,8,80.5,29Q87,50,76.5,64Z" stroke="none" stroke-width="0" fill="#84b2d0" data-darkreader-inline-fill="" style="--darkreader-inline-fill: #304f5f; --darkreader-inline-stroke: none;" data-darkreader-inline-stroke=""/><path d="M83,66.5Q69,83,47.5,87Q26,91,21.5,70.5Q17,50,22,30Q27,10,47.5,14.5Q68,19,82.5,34.5Q97,50,83,66.5Z" stroke="none" stroke-width="0" fill="#81b0d0" data-darkreader-inline-fill="" style="--darkreader-inline-fill: #304f61; --darkreader-inline-stroke: none;" data-darkreader-inline-stroke=""/><path d="M80,71Q74,92,52.5,87Q31,82,22.5,66Q14,50,20,29Q26,8,48,11.5Q70,15,78,32.5Q86,50,80,71Z" stroke="none" stroke-width="0" fill="#7eaed0" data-darkreader-inline-fill="" style="--darkreader-inline-fill: #305063; --darkreader-inline-stroke: none;" data-darkreader-inline-stroke=""/><path d="M83,68Q71,86,49.5,87.5Q28,89,22.5,69.5Q17,50,26,36.5Q35,23,54.5,16Q74,9,84.5,29.5Q95,50,83,68Z" stroke="none" stroke-width="0" fill="#7bacd0" data-darkreader-inline-fill="" style="--darkreader-inline-fill: #315064; --darkreader-inline-stroke: none;" data-darkreader-inline-stroke=""/><path d="M85,70Q73,90,51.5,87Q30,84,23.5,67Q17,50,24,33.5Q31,17,50,17Q69,17,83,33.5Q97,50,85,70Z" stroke="none" stroke-width="0" fill="#78aad0" data-darkreader-inline-fill="" style="--darkreader-inline-fill: #305066; --darkreader-inline-stroke: none;" data-darkreader-inline-stroke=""/><path d="M82,65.5Q68,81,50.5,80.5Q33,80,25,65Q17,50,22.5,31.5Q28,13,48.5,15Q69,17,82.5,33.5Q96,50,82,65.5Z" stroke="none" stroke-width="0" fill="#75a8d0" data-darkreader-inline-fill="" style="--darkreader-inline-fill: #305168; --darkreader-inline-stroke: none;" data-darkreader-inline-stroke=""/><path d="M78,64Q66,78,47,83.5Q28,89,20.5,69.5Q13,50,21,32Q29,14,49.5,14.5Q70,15,80,32.5Q90,50,78,64Z" stroke="none" stroke-width="0" fill="#72a6d0" data-darkreader-inline-fill="" style="--darkreader-inline-fill: #30516a; --darkreader-inline-stroke: none;" data-darkreader-inline-stroke=""/><path d="M83,71Q74,92,52,88.5Q30,85,24.5,67.5Q19,50,25.5,34.5Q32,19,52,15.5Q72,12,82,31Q92,50,83,71Z" stroke="none" stroke-width="0" fill="#6fa4d0" data-darkreader-inline-fill="" style="--darkreader-inline-fill: #31536b; --darkreader-inline-stroke: none;" data-darkreader-inline-stroke=""/><path d="M74.5,63Q65,76,46.5,82.5Q28,89,23,69.5Q18,50,26.5,37Q35,24,53,19Q71,14,77.5,32Q84,50,74.5,63Z" stroke="none" stroke-width="0" fill="#6ca2d0" data-darkreader-inline-fill="" style="--darkreader-inline-fill: #31536d; --darkreader-inline-stroke: none;" data-darkreader-inline-stroke=""/><path d="M79,64Q66,78,45.5,85.5Q25,93,17.5,71.5Q10,50,22,36Q34,22,49.5,22.5Q65,23,78.5,36.5Q92,50,79,64Z" stroke="none" stroke-width="0" fill="#69a0d0" data-darkreader-inline-fill="" style="--darkreader-inline-fill: #30546f; --darkreader-inline-stroke: none;" data-darkreader-inline-stroke=""/><path d="M81.5,63.5Q66,77,49.5,78.5Q33,80,19,65Q5,50,15.5,29.5Q26,9,46,15.5Q66,22,81.5,36Q97,50,81.5,63.5Z" stroke="none" stroke-width="0" fill="#669ed0" data-darkreader-inline-fill="" style="--darkreader-inline-fill: #305471; --darkreader-inline-stroke: none;" data-darkreader-inline-stroke=""/><path d="M77.5,71Q74,92,52,88.5Q30,85,22,67.5Q14,50,21.5,32Q29,14,49.5,15Q70,16,75.5,33Q81,50,77.5,71Z" stroke="none" stroke-width="0" fill="#639cd0" data-darkreader-inline-fill="" style="--darkreader-inline-fill: #315572; --darkreader-inline-stroke: none;" data-darkreader-inline-stroke=""/><path d="M80,64Q66,78,47,83Q28,88,18,69Q8,50,17.5,30Q27,10,49.5,11Q72,12,83,31Q94,50,80,64Z" stroke="none" stroke-width="0" fill="#609ad0" data-darkreader-inline-fill="" style="--darkreader-inline-fill: #315574; --darkreader-inline-stroke: none;" data-darkreader-inline-stroke=""/><path d="M82.5,64.5Q67,79,49,80.5Q31,82,18,66Q5,50,20,37Q35,24,52,20.5Q69,17,83.5,33.5Q98,50,82.5,64.5Z" stroke="none" stroke-width="0" fill="#5d98d0" data-darkreader-inline-fill="" style="--darkreader-inline-fill: #315576; --darkreader-inline-stroke: none;" data-darkreader-inline-stroke=""/><path d="M84,71Q74,92,50.5,91Q27,90,18,70Q9,50,19,32Q29,14,51,12Q73,10,83.5,30Q94,50,84,71Z" stroke="none" stroke-width="0" fill="#5a96d0" data-darkreader-inline-fill="" style="--darkreader-inline-fill: #315678; --darkreader-inline-stroke: none;" data-darkreader-inline-stroke=""/><path d="M82,65Q67,80,50,79.5Q33,79,25,64.5Q17,50,24,33.5Q31,17,51.5,14Q72,11,84.5,30.5Q97,50,82,65Z" stroke="none" stroke-width="0" fill="#5794d0" data-darkreader-inline-fill="" style="--darkreader-inline-fill: #315679; --darkreader-inline-stroke: none;" data-darkreader-inline-stroke=""/><path d="M81.5,66.5Q69,83,51,81.5Q33,80,17,65Q1,50,17,35.5Q33,21,53.5,15Q74,9,84,29.5Q94,50,81.5,66.5Z" stroke="none" stroke-width="0" fill="#5492d0" data-darkreader-inline-fill="" style="--darkreader-inline-fill: #31577b; --darkreader-inline-stroke: none;" data-darkreader-inline-stroke=""/><path d="M80.5,63.5Q66,77,46.5,83.5Q27,90,22,70Q17,50,23,32Q29,14,48,17Q67,20,81,35Q95,50,80.5,63.5Z" stroke="none" stroke-width="0" fill="#5190d0" data-darkreader-inline-fill="" style="--darkreader-inline-fill: #31587d; --darkreader-inline-stroke: none;" data-darkreader-inline-stroke=""/><path d="M83,71Q74,92,52,88.5Q30,85,24.5,67.5Q19,50,25.5,34.5Q32,19,52,15.5Q72,12,82,31Q92,50,83,71Z" stroke="none" stroke-width="0" fill="#4e8ed0" data-darkreader-inline-fill="" style="--darkreader-inline-fill: #31597e; --darkreader-inline-stroke: none;" data-darkreader-inline-stroke=""/><path d="M81.5,67.5Q70,85,49.5,85.5Q29,86,21.5,68Q14,50,21.5,31.5Q29,13,51.5,10.5Q74,8,83.5,29Q93,50,81.5,67.5Z" stroke="none" stroke-width="0" fill="#4b8cd0" data-darkreader-inline-fill="" style="--darkreader-inline-fill: #325980; --darkreader-inline-stroke: none;" data-darkreader-inline-stroke=""/><path d="M83,66.5Q69,83,48,86Q27,89,17.5,69.5Q8,50,21,36Q34,22,52,18.5Q70,15,83.5,32.5Q97,50,83,66.5Z" stroke="none" stroke-width="0" fill="#488ad0" data-darkreader-inline-fill="" style="--darkreader-inline-fill: #325a82; --darkreader-inline-stroke: none;" data-darkreader-inline-stroke=""/><path d="M80,70.5Q74,91,50.5,91Q27,91,19.5,70.5Q12,50,18.5,28.5Q25,7,46.5,13Q68,19,77,34.5Q86,50,80,70.5Z" stroke="none" stroke-width="0" fill="#4588d0" data-darkreader-inline-fill="" style="--darkreader-inline-fill: #315a83; --darkreader-inline-stroke: none;" data-darkreader-inline-stroke=""/><path d="M75.5,64.5Q67,79,48.5,81.5Q30,84,17.5,67Q5,50,18.5,34.5Q32,19,50,19.5Q68,20,76,35Q84,50,75.5,64.5Z" stroke="none" stroke-width="0" fill="#4286d0" data-darkreader-inline-fill="" style="--darkreader-inline-fill: #325b85; --darkreader-inline-stroke: none;" data-darkreader-inline-stroke=""/><path d="M77,71Q74,92,53,86.5Q32,81,23.5,65.5Q15,50,21,30Q27,10,50,10Q73,10,76.5,30Q80,50,77,71Z" stroke="none" stroke-width="0" fill="#3f84d0" data-darkreader-inline-fill="" style="--darkreader-inline-fill: #325b87; --darkreader-inline-stroke: none;" data-darkreader-inline-stroke=""/><path d="M73,64Q66,78,45.5,85.5Q25,93,20.5,71.5Q16,50,25,36.5Q34,23,53,17.5Q72,12,76,31Q80,50,73,64Z" stroke="none" stroke-width="0" fill="#3c82d0" data-darkreader-inline-fill="" style="--darkreader-inline-fill: #325c89; --darkreader-inline-stroke: none;" data-darkreader-inline-stroke=""/><path d="M80.5,70Q73,90,49,91.5Q25,93,18,71.5Q11,50,19,30Q27,10,48.5,12.5Q70,15,79,32.5Q88,50,80.5,70Z" stroke="none" stroke-width="0" fill="#3980d0" data-darkreader-inline-fill="" style="--darkreader-inline-fill: #325d8a; --darkreader-inline-stroke: none;" data-darkreader-inline-stroke=""/><path d="M78,69.5Q73,89,53,84Q33,79,24.5,64.5Q16,50,23.5,33Q31,16,52.5,12.5Q74,9,78.5,29.5Q83,50,78,69.5Z" stroke="none" stroke-width="0" fill="#367ed0" data-darkreader-inline-fill="" style="--darkreader-inline-fill: #335e8c; --darkreader-inline-stroke: none;" data-darkreader-inline-stroke=""/><path d="M80,70.5Q74,91,51,90Q28,89,21,69.5Q14,50,24.5,37Q35,24,53,19Q71,14,78.5,32Q86,50,80,70.5Z" stroke="none" stroke-width="0" fill="#337cd0" data-darkreader-inline-fill="" style="--darkreader-inline-fill: #335e8e; --darkreader-inline-stroke: none;" data-darkreader-inline-stroke=""/><path d="M79.5,65.5Q68,81,47,86Q26,91,13.5,70.5Q1,50,13.5,29.5Q26,9,50.5,8Q75,7,83,28.5Q91,50,79.5,65.5Z" stroke="none" stroke-width="0" fill="#307ad0" data-darkreader-inline-fill="" style="--darkreader-inline-fill: #335f90; --darkreader-inline-stroke: none;" data-darkreader-inline-stroke=""/><path d="M79.5,63.5Q66,77,46.5,83Q27,89,18,69.5Q9,50,21.5,36.5Q34,23,50,23Q66,23,79.5,36.5Q93,50,79.5,63.5Z" stroke="none" stroke-width="0" fill="#2d78d0" data-darkreader-inline-fill="" style="--darkreader-inline-fill: #315e8f; --darkreader-inline-stroke: none;" data-darkreader-inline-stroke=""/><path d="M80.5,65Q67,80,50,79.5Q33,79,18,64.5Q3,50,14,28.5Q25,7,48,10Q71,13,82.5,31.5Q94,50,80.5,65Z" stroke="none" stroke-width="0" fill="#2a76d0" data-darkreader-inline-fill="" style="--darkreader-inline-fill: #2f5b8f; --darkreader-inline-stroke: none;" data-darkreader-inline-stroke=""/><path d="M76.5,69.5Q72,89,50,88.5Q28,88,18,69Q8,50,20,34Q32,18,49,20Q66,22,73.5,36Q81,50,76.5,69.5Z" stroke="none" stroke-width="0" fill="#2774d0" data-darkreader-inline-fill="" style="--darkreader-inline-fill: #2c5a8e; --darkreader-inline-stroke: none;" data-darkreader-inline-stroke=""/><path d="M81.5,63.5Q65,77,46.5,82.5Q28,88,20.5,69Q13,50,19,28.5Q25,7,48,10.5Q71,14,84.5,32Q98,50,81.5,63.5Z" stroke="none" stroke-width="0" fill="#2472d0" data-darkreader-inline-fill="" style="--darkreader-inline-fill: #29588e; --darkreader-inline-stroke: none;" data-darkreader-inline-stroke=""/><path d="M77.5,69Q72,88,52.5,84Q33,80,18.5,65Q4,50,19,35.5Q34,21,54,15Q74,9,78.5,29.5Q83,50,77.5,69Z" stroke="none" stroke-width="0" fill="#2170d0" data-darkreader-inline-fill="" style="--darkreader-inline-fill: #26568d; --darkreader-inline-stroke: none;" data-darkreader-inline-stroke=""/><path d="M79.5,67Q69,84,52,80Q35,76,20.5,63Q6,50,19.5,35.5Q33,21,52.5,16Q72,11,81,30.5Q90,50,79.5,67Z" stroke="none" stroke-width="0" fill="#1e6ed0" data-darkreader-inline-fill="" style="--darkreader-inline-fill: #24548d; --darkreader-inline-stroke: none;" data-darkreader-inline-stroke=""/><path d="M74,64.5Q67,79,47,84.5Q27,90,19.5,70Q12,50,23,36Q34,22,50,22Q66,22,73.5,36Q81,50,74,64.5Z" stroke="none" stroke-width="0" fill="#1b6cd0" data-darkreader-inline-fill="" style="--darkreader-inline-fill: #21528c; --darkreader-inline-stroke: none;" data-darkreader-inline-stroke=""/></svg>