<svg viewBox="0 0 100 100" xmlns="http://www.w3.org/2000/svg"><path d="M85.5,59Q75,68,68,76.5Q61,85,50,84Q39,83,29.5,77.5Q20,72,10,61Q0,50,11.5,40Q23,30,30,20Q37,10,49,12.5Q61,15,75.5,18Q90,21,93,35.5Q96,50,85.5,59Z" stroke="none" fill="#ff5303" data-darkreader-inline-fill="" style="--darkreader-inline-fill: #ba470c; --darkreader-inline-stroke: none;" data-darkreader-inline-stroke=""/><path d="M85.5,59Q75,68,68,76.5Q61,85,50,84Q39,83,29.5,77.5Q20,72,10,61Q0,50,11.5,40Q23,30,30,20Q37,10,49,12.5Q61,15,75.5,18Q90,21,93,35.5Q96,50,85.5,59Z" transform="translate(-0.35 4.66)" stroke="#a93701" stroke-width="1" fill="none" data-darkreader-inline-stroke="" style="--darkreader-inline-stroke: #ffa168;"/></svg>