<?xml version="1.0" standalone="no"?>
<svg viewBox="0 0 200 200" xmlns="http://www.w3.org/2000/svg">
  <path fill="#08BDBA" d="M40.9,-56.1C55.6,-45.7,71.9,-37.2,75.6,-24.8C79.2,-12.4,70.4,3.8,63.7,19.6C57.1,35.5,52.7,50.9,42.4,60.5C32.2,70.1,16.1,73.8,1.9,71.1C-12.3,68.5,-24.5,59.6,-35.2,50.1C-45.8,40.7,-54.7,30.7,-61.4,18.1C-68.1,5.5,-72.5,-9.8,-68.1,-21.7C-63.6,-33.6,-50.3,-42.2,-37.4,-53.2C-24.6,-64.2,-12.3,-77.5,0.4,-78.1C13.1,-78.7,26.3,-66.4,40.9,-56.1Z" transform="translate(100 100)" />
</svg>
